<svg xmlns="http://www.w3.org/2000/svg" style="display:none">
  <symbol id="i-chevron" viewBox="0 0 24 24">
    <path d="M6 9l6 6 6-6" fill="none" stroke="currentColor" stroke-width="1.8" stroke-linecap="round" stroke-linejoin="round"/>
  </symbol>
  <symbol id="i-heart" viewBox="0 0 24 24">
    <path d="M12 20s-7-4.6-9.2-8.8C1 8.2 2.6 5.8 5.3 5.1c1.6-.4 3.3.2 4.3 1.4 1-1.2 2.7-1.8 4.3-1.4 2.7.7 4.3 3.1 2.5 6.1C19 15.4 12 20 12 20z" fill="none" stroke="currentColor" stroke-width="1.8" stroke-linejoin="round"/>
  </symbol>
  <symbol id="i-shield" viewBox="0 0 24 24">
    <path d="M12 3l8 4v6c0 5-3.4 8.6-8 9-4.6-.4-8-4-8-9V7l8-4z" fill="none" stroke="currentColor" stroke-width="1.8"/>
    <path d="M9.5 12l1.8 1.8L14.8 10" fill="none" stroke="currentColor" stroke-width="1.8" stroke-linecap="round" stroke-linejoin="round"/>
  </symbol>
  <symbol id="i-doc" viewBox="0 0 24 24">
    <path d="M7 3h7l3 3v15H7z" fill="none" stroke="currentColor" stroke-width="1.8"/>
    <path d="M14 3v4h4" fill="none" stroke="currentColor" stroke-width="1.8"/>
    <path d="M9 12h6M9 16h6" fill="none" stroke="currentColor" stroke-width="1.8" stroke-linecap="round"/>
  </symbol>
  <symbol id="i-checklist" viewBox="0 0 24 24">
    <path d="M8 6h13M8 12h13M8 18h13" fill="none" stroke="currentColor" stroke-width="1.8" stroke-linecap="round"/>
    <path d="M3.5 6l1.2 1.2L6.8 5" fill="none" stroke="currentColor" stroke-width="1.8" stroke-linecap="round" stroke-linejoin="round"/>
    <path d="M3.5 12l1.2 1.2L6.8 11" fill="none" stroke="currentColor" stroke-width="1.8" stroke-linecap="round" stroke-linejoin="round"/>
    <path d="M3.5 18l1.2 1.2L6.8 17" fill="none" stroke="currentColor" stroke-width="1.8" stroke-linecap="round" stroke-linejoin="round"/>
  </symbol>
  <symbol id="i-lock" viewBox="0 0 24 24">
    <path d="M7 11V8a5 5 0 0110 0v3" fill="none" stroke="currentColor" stroke-width="1.8" stroke-linecap="round"/>
    <path d="M6 11h12v10H6z" fill="none" stroke="currentColor" stroke-width="1.8"/>
    <path d="M12 15v3" fill="none" stroke="currentColor" stroke-width="1.8" stroke-linecap="round"/>
  </symbol>
  <symbol id="i-globe" viewBox="0 0 24 24">
    <circle cx="12" cy="12" r="9" fill="none" stroke="currentColor" stroke-width="1.8"/>
    <path d="M3 12h18" fill="none" stroke="currentColor" stroke-width="1.8" stroke-linecap="round"/>
    <path d="M12 3c3 3 3 15 0 18-3-3-3-15 0-18z" fill="none" stroke="currentColor" stroke-width="1.8"/>
  </symbol>
  <symbol id="i-upload" viewBox="0 0 24 24">
    <path d="M12 16V6" fill="none" stroke="currentColor" stroke-width="1.8" stroke-linecap="round"/>
    <path d="M8 9l4-4 4 4" fill="none" stroke="currentColor" stroke-width="1.8" stroke-linecap="round" stroke-linejoin="round"/>
    <path d="M5 18h14" fill="none" stroke="currentColor" stroke-width="1.8" stroke-linecap="round"/>
  </symbol>
  <symbol id="i-phone" viewBox="0 0 24 24">
    <path d="M7 3h4l2 5-2 1c1 3 3 5 6 6l1-2 5 2v4c-7 2-18-9-16-16z" fill="none" stroke="currentColor" stroke-width="1.8" stroke-linejoin="round"/>
  </symbol>
  <symbol id="i-mail" viewBox="0 0 24 24">
    <path d="M4 6h16v12H4z" fill="none" stroke="currentColor" stroke-width="1.8"/>
    <path d="M4 7l8 6 8-6" fill="none" stroke="currentColor" stroke-width="1.8" stroke-linecap="round" stroke-linejoin="round"/>
  </symbol>
  <symbol id="i-pin" viewBox="0 0 24 24">
    <path d="M12 21s7-4.4 7-11a7 7 0 10-14 0c0 6.6 7 11 7 11z" fill="none" stroke="currentColor" stroke-width="1.8"/>
    <circle cx="12" cy="10" r="2.5" fill="none" stroke="currentColor" stroke-width="1.8"/>
  </symbol>
  <symbol id="i-clock" viewBox="0 0 24 24">
    <circle cx="12" cy="12" r="9" fill="none" stroke="currentColor" stroke-width="1.8"/>
    <path d="M12 7v6l4 2" fill="none" stroke="currentColor" stroke-width="1.8" stroke-linecap="round" stroke-linejoin="round"/>
  </symbol>
</svg>
